<svg id="visual" viewBox="0 0 675 900" width="675" height="900" xmlns="http://www.w3.org/2000/svg" xmlns:xlink="http://www.w3.org/1999/xlink" version="1.1"><path d="M0 539L10.2 479C20.3 419 40.7 299 61.2 319.3C81.7 339.7 102.3 500.3 122.8 530.8C143.3 561.3 163.7 461.7 184 458.5C204.3 455.3 224.7 548.7 245.2 509.8C265.7 471 286.3 300 306.8 210.2C327.3 120.3 347.7 111.7 368.2 109.8C388.7 108 409.3 113 429.8 215.2C450.3 317.3 470.7 516.7 491 554.7C511.3 592.7 531.7 469.3 552.2 397C572.7 324.7 593.3 303.3 613.8 300.5C634.3 297.7 654.7 313.3 664.8 321.2L675 329L675 0L664.8 0C654.7 0 634.3 0 613.8 0C593.3 0 572.7 0 552.2 0C531.7 0 511.3 0 491 0C470.7 0 450.3 0 429.8 0C409.3 0 388.7 0 368.2 0C347.7 0 327.3 0 306.8 0C286.3 0 265.7 0 245.2 0C224.7 0 204.3 0 184 0C163.7 0 143.3 0 122.8 0C102.3 0 81.7 0 61.2 0C40.7 0 20.3 0 10.2 0L0 0Z" fill="#f5e8d7" stroke-linecap="round" stroke-linejoin="miter"></path></svg>